<svg id="Capa_1" enable-background="new 0 0 512 512" height="512" viewBox="0 0 512 512" width="512" xmlns="http://www.w3.org/2000/svg"><g><path d="m151 0h-15v106l15 13.334 15-13.334v-106z" fill="#edf5ff"/><path d="m166 0h-15v119.334l15-13.334z" fill="#d5e8fe"/><path d="m181.82 138.52c-9.902-6.607-15.82-20.611-15.82-32.52h-15-15c0 11.909-5.918 25.913-15.82 32.52-18.267 12.187-29.18 32.563-29.18 54.521v213.959h60 60v-213.959c0-21.958-10.913-42.334-29.18-54.521z" fill="#b3e4ff"/><path d="m211 193.041c0-21.958-10.913-42.334-29.18-54.521-9.902-6.607-15.82-20.611-15.82-32.52h-15v301h60z" fill="#5dacff"/><path d="m151 407h-15v90h15 15v-90z" fill="#d5e8fe"/><path d="m151 407h15v90h-15z" fill="#b5dbff"/><g fill="#edf5ff"><path d="m91 482v30h60 60v-30h-60z"/><path d="m151 392h-90v30h90 90v-30z"/></g><path d="m151 482h60v30h-60z" fill="#d5e8fe"/><path d="m151 392h90v30h-90z" fill="#d5e8fe"/><path d="m346 151c-28.945 0-55.195 11.777-74.209 30.791s-30.791 45.264-30.791 74.209c0 57.891 47.109 105 105 105 28.945 0 55.195-11.777 74.209-30.791s30.791-45.264 30.791-74.209c0-57.891-47.109-105-105-105zm0 180c-41.353 0-75-33.647-75-75 0-15.26 4.634-29.436 12.495-41.294l103.799 103.799c-11.858 7.861-26.034 12.495-41.294 12.495zm62.505-33.706-103.799-103.799c11.858-7.861 26.034-12.495 41.294-12.495 41.353 0 75 33.647 75 75 0 15.26-4.634 29.436-12.495 41.294z" fill="#ff6e83"/><path d="m346 151c-28.945 0-55.195 11.777-74.209 30.791l148.418 148.418c19.014-19.014 30.791-45.264 30.791-74.209 0-57.891-47.109-105-105-105zm62.505 146.294-103.799-103.799c11.858-7.861 26.034-12.495 41.294-12.495 41.353 0 75 33.647 75 75 0 15.26-4.634 29.436-12.495 41.294z" fill="#ff3b7f"/><g><path d="m151 0h-15v106l15 13.334 15-13.334v-106z" fill="#edf5ff"/><path d="m166 0h-15v119.334l15-13.334z" fill="#d5e8fe"/><path d="m181.82 138.52c-9.902-6.607-15.82-20.611-15.82-32.52h-15-15c0 11.909-5.918 25.913-15.82 32.52-18.267 12.187-29.18 32.563-29.18 54.521v213.959h60 60v-213.959c0-21.958-10.913-42.334-29.18-54.521z" fill="#b3e4ff"/><path d="m211 193.041c0-21.958-10.913-42.334-29.18-54.521-9.902-6.607-15.82-20.611-15.82-32.52h-15v301h60z" fill="#5dacff"/><path d="m151 407h-15v90h15 15v-90z" fill="#d5e8fe"/><path d="m151 407h15v90h-15z" fill="#b5dbff"/><g fill="#edf5ff"><path d="m91 482v30h60 60v-30h-60z"/><path d="m151 392h-90v30h90 90v-30z"/></g><g fill="#d5e8fe"><path d="m151 482h60v30h-60z"/><path d="m151 392h90v30h-90z"/></g></g><path d="m346 151c-28.945 0-55.195 11.777-74.209 30.791s-30.791 45.264-30.791 74.209c0 57.891 47.109 105 105 105 28.945 0 55.195-11.777 74.209-30.791s30.791-45.264 30.791-74.209c0-57.891-47.109-105-105-105zm0 180c-41.353 0-75-33.647-75-75 0-15.26 4.634-29.436 12.495-41.294l103.799 103.799c-11.858 7.861-26.034 12.495-41.294 12.495zm62.505-33.706-103.799-103.799c11.858-7.861 26.034-12.495 41.294-12.495 41.353 0 75 33.647 75 75 0 15.26-4.634 29.436-12.495 41.294z" fill="#ff6e83"/><path d="m346 151c-28.945 0-55.195 11.777-74.209 30.791l148.418 148.418c19.014-19.014 30.791-45.264 30.791-74.209 0-57.891-47.109-105-105-105zm62.505 146.294-103.799-103.799c11.858-7.861 26.034-12.495 41.294-12.495 41.353 0 75 33.647 75 75 0 15.26-4.634 29.436-12.495 41.294z" fill="#ff3b7f"/></g></svg>