<svg height="512" viewBox="0 0 56 58" width="512" xmlns="http://www.w3.org/2000/svg"><g id="Page-1" fill="none" fill-rule="evenodd"><g id="001---Skull" fill-rule="nonzero"><path id="Shape" d="m28 53v1c0 2.209139 1.790861 4 4 4s4-1.790861 4-4v-3c0 2.209139 1.790861 4 4 4s4-1.790861 4-4v-9.336c.0004781-.9200646.6285991-1.7211047 1.522-1.941 3.372-.845 11.048-4.16 9.478-16.723-2-16-16-23-27-23s-25 7-27 23c-1.57 12.563 6.106 15.878 9.478 16.723.8934009.2198953 1.5215219 1.0209354 1.522 1.941v9.336c0 2.209139 1.790861 4 4 4s4-1.790861 4-4v3c0 2.209139 1.790861 4 4 4s4-1.790861 4-4z" fill="#9fc9d3"/><path id="Shape" d="m18 7.2c-.471303-.00267604-.8767602-.33407338-.9731747-.79541699-.0964146-.46134361.1423892-.92738273.5731747-1.11858301 3.2745305-1.46315769 6.8137256-2.2411 10.4-2.286.5522847 0 1 .44771525 1 1s-.4477153 1-1 1c-3.3090264.04300212-6.5742849.76241395-9.595 2.114-.1274109.05694888-.2654412.08625902-.405.086z" fill="#fff"/><path id="Shape" d="m11.971 11c-.4166018.0003488-.7897748-.2576151-.9366386-.6474718-.1468638-.3898566-.0366462-.82991974.2766386-1.1045282.6748419-.58924143 1.3840911-1.1378744 2.124-1.643.2946595-.20714377.67795-.23982185 1.0034227-.08554849.3254727.15427335.5428338.471659.5690332.8308892s-.1428112.70479477-.4424559.90465929c-.6744219.46128411-1.3208903.9621636-1.936 1.5-.1825109.1585137-.4162635.2455493-.658.245z" fill="#fff"/><g fill="#35495e"><ellipse id="Oval" cx="16" cy="25" rx="9" ry="10"/><ellipse id="Oval" cx="40" cy="25" rx="9" ry="10"/><path id="Shape" d="m28 42c2 0 4 0 4-3 0-2-2-5-4-5s-4 3-4 5c0 3 2 3 4 3z"/></g></g></g></svg>