<?xml version="1.0" encoding="iso-8859-1"?>
<!-- Generator: Adobe Illustrator 19.0.0, SVG Export Plug-In . SVG Version: 6.00 Build 0)  -->
<svg version="1.1" id="Capa_1" xmlns="http://www.w3.org/2000/svg" xmlns:xlink="http://www.w3.org/1999/xlink" x="0px" y="0px"
	 viewBox="0 0 512.008 512.008" style="enable-background:new 0 0 512.008 512.008;" xml:space="preserve">
<rect x="25.104" y="425.231" transform="matrix(-0.7071 0.7071 -0.7071 -0.7071 405.6458 768.7693)" style="fill:#2195F2;" width="37.004" height="86.331"/>
<rect x="45.872" y="398.325" transform="matrix(-0.7071 0.7071 -0.7071 -0.7071 444.9294 674.014)" style="fill:#B7E5FF;" width="73.999" height="61.659"/>
<rect x="103.598" y="285.069" transform="matrix(-0.7071 0.7071 -0.7071 -0.7071 484.1373 579.2592)" style="fill:#2195F2;" width="37.004" height="209.657"/>
<rect x="90.033" y="200.002" transform="matrix(-0.7071 0.7071 -0.7071 -0.7071 606.2297 284.5624)" style="fill:#B7E5FF;" width="308.294" height="135.667"/>
<polygon style="fill:#4DAAF5;" points="512.008,12.337 499.676,0.006 380.133,119.548 366.301,119.548 340.138,145.712 
	366.301,171.876 392.465,145.712 392.465,131.88 "/>
<path style="fill:#B7E5FF;" d="M479.678,102.106l-18.943,18.943c-4.622,4.622-7.221,10.902-7.221,17.443l0,0
	c0,13.623,11.041,24.664,24.664,24.664h2.991c13.623,0.009,24.673-11.032,24.673-24.655v-0.009l0,0
	c0-6.541-2.599-12.82-7.221-17.443L479.678,102.106z"/>
<g>
	
		<rect x="283.449" y="141.786" transform="matrix(-0.7071 0.7071 -0.7071 -0.7071 629.5461 109.136)" style="fill:#2195F2;" width="17.442" height="86.331"/>
	
		<rect x="231.117" y="189.004" transform="matrix(-0.7071 0.7071 -0.7071 -0.7071 564.8743 205.688)" style="fill:#2195F2;" width="17.442" height="61.659"/>
	
		<rect x="196.246" y="229.017" transform="matrix(-0.7071 0.7071 -0.7071 -0.7071 542.3631 319.7109)" style="fill:#2195F2;" width="17.442" height="86.331"/>
	
		<rect x="143.904" y="276.217" transform="matrix(-0.7071 0.7071 -0.7071 -0.7071 477.6615 416.2382)" style="fill:#2195F2;" width="17.442" height="61.659"/>
</g>
<g>
</g>
<g>
</g>
<g>
</g>
<g>
</g>
<g>
</g>
<g>
</g>
<g>
</g>
<g>
</g>
<g>
</g>
<g>
</g>
<g>
</g>
<g>
</g>
<g>
</g>
<g>
</g>
<g>
</g>
</svg>
